<?xml version="1.0" encoding="UTF-8"?>
<!DOCTYPE svg PUBLIC "-//W3C//DTD SVG 1.1//EN" "http://www.w3.org/Graphics/SVG/1.1/DTD/svg11.dtd">
<svg xmlns="http://www.w3.org/2000/svg" version="1.1" width="1250px" height="1363px" style="shape-rendering:geometricPrecision; text-rendering:geometricPrecision; image-rendering:optimizeQuality; fill-rule:evenodd; clip-rule:evenodd" xmlns:xlink="http://www.w3.org/1999/xlink">
<g><path style="opacity:0.994" fill="#5b3c7f" d="M 617.5,-0.5 C 622.167,-0.5 626.833,-0.5 631.5,-0.5C 654.246,7.3676 676.579,16.5343 698.5,27C 785.24,70.2008 870.907,115.201 955.5,162C 1023.33,199.747 1091,237.747 1158.5,276C 1188.67,294.167 1212.83,318.333 1231,348.5C 1240.7,365.778 1246.87,384.112 1249.5,403.5C 1249.5,587.833 1249.5,772.167 1249.5,956.5C 1241.63,993.733 1223.29,1024.9 1194.5,1050C 1187.45,1056.05 1180.12,1061.72 1172.5,1067C 1052.64,1138.1 931.641,1207.44 809.5,1275C 757.107,1304.36 703.44,1331.36 648.5,1356C 642.021,1358.1 635.687,1360.27 629.5,1362.5C 626.167,1362.5 622.833,1362.5 619.5,1362.5C 600.811,1356.16 582.477,1348.66 564.5,1340C 522.362,1319.1 480.695,1297.43 439.5,1275C 317.359,1207.44 196.359,1138.1 76.5,1067C 47.1842,1046.68 24.6842,1020.52 9,988.5C 4.67606,978.042 1.50939,967.375 -0.5,956.5C -0.5,772.167 -0.5,587.833 -0.5,403.5C 5.95157,363.536 24.2849,330.036 54.5,303C 65.7844,293.027 77.7844,284.027 90.5,276C 207.15,209.395 324.816,144.395 443.5,81C 491.188,55.989 539.522,32.3223 588.5,10C 598.162,6.17127 607.828,2.67127 617.5,-0.5 Z"/></g>
<g><path style="opacity:1" fill="#9675c0" d="M 622.5,68.5 C 627.296,69.4873 631.963,70.9873 636.5,73C 677.232,91.8661 717.565,111.533 757.5,132C 882.55,198.021 1006.22,266.354 1128.5,337C 1149.63,350.797 1165.8,368.964 1177,391.5C 1179.13,397.019 1180.8,402.686 1182,408.5C 1182.67,588.833 1182.67,769.167 1182,949.5C 1178.28,962.935 1171.95,974.935 1163,985.5C 1155.47,993.365 1147.64,1000.86 1139.5,1008C 1002.02,1089.43 863.022,1168.43 722.5,1245C 690.47,1262.18 657.804,1278.01 624.5,1292.5C 596.384,1280.44 568.717,1267.28 541.5,1253C 395.552,1174.37 251.552,1092.7 109.5,1008C 92.2287,995.073 79.0621,978.907 70,959.5C 69,956.167 68,952.833 67,949.5C 66.3333,769.167 66.3333,588.833 67,408.5C 70.5423,392.417 77.5423,378.083 88,365.5C 98.436,353.558 110.269,343.391 123.5,335C 266.42,252.697 411.42,173.697 558.5,98C 579.804,87.8441 601.137,78.0107 622.5,68.5 Z"/></g>
<g><path style="opacity:1" fill="#fefefe" d="M 949.5,391.5 C 949.5,563.833 949.5,736.167 949.5,908.5C 855.833,908.333 762.166,908.5 668.5,909C 646.676,911.487 629.176,921.32 616,938.5C 602.824,921.32 585.324,911.487 563.5,909C 469.834,908.5 376.167,908.333 282.5,908.5C 282.5,736.167 282.5,563.833 282.5,391.5C 282.5,366.5 282.5,341.5 282.5,316.5C 373.834,316.333 465.167,316.5 556.5,317C 574.76,318.413 590.594,325.247 604,337.5C 609.898,344.511 613.898,352.511 616,361.5C 620.85,341.648 633.016,328.481 652.5,322C 659.951,319.369 667.618,317.702 675.5,317C 766.833,316.5 858.166,316.333 949.5,316.5C 949.5,341.5 949.5,366.5 949.5,391.5 Z"/></g>
<g><path style="opacity:1" fill="#5b3c7f" d="M 282.5,391.5 C 282.5,563.833 282.5,736.167 282.5,908.5C 282.5,927.833 282.5,947.167 282.5,966.5C 504.833,966.5 727.167,966.5 949.5,966.5C 949.5,947.167 949.5,927.833 949.5,908.5C 949.5,736.167 949.5,563.833 949.5,391.5C 975.485,393.739 991.985,407.406 999,432.5C 999.667,615.167 999.667,797.833 999,980.5C 994.947,1003.22 981.78,1017.72 959.5,1024C 730.833,1024.67 502.167,1024.67 273.5,1024C 250.676,1018.18 237.176,1003.68 233,980.5C 232.333,795.167 232.333,609.833 233,424.5C 241.254,401.451 257.754,390.451 282.5,391.5 Z"/></g>
<g><path style="opacity:1" fill="#5c3d7f" d="M 457.5,422.5 C 475.462,421.657 492.129,425.824 507.5,435C 513.164,440.779 513.997,447.279 510,454.5C 505.377,459.021 499.877,460.521 493.5,459C 481.609,450.776 468.609,447.776 454.5,450C 447.642,452.549 445.142,457.383 447,464.5C 448.122,466.624 449.622,468.457 451.5,470C 465.273,475.278 479.273,479.945 493.5,484C 512.409,491.981 520.242,506.148 517,526.5C 512.13,546.033 499.63,556.867 479.5,559C 457.67,561.875 437.67,557.208 419.5,545C 411.072,537.925 410.405,530.259 417.5,522C 421.894,519.626 426.56,518.959 431.5,520C 439.839,525.669 448.839,530.002 458.5,533C 464.5,533.667 470.5,533.667 476.5,533C 485.054,531.137 488.888,525.97 488,517.5C 486.878,515.376 485.378,513.543 483.5,512C 467.961,506.292 452.295,500.959 436.5,496C 428.248,492.082 422.415,485.916 419,477.5C 413.351,446.011 426.184,427.678 457.5,422.5 Z"/></g>
<g><path style="opacity:1" fill="#5c3d80" d="M 748.5,422.5 C 769.75,419.716 789.417,423.882 807.5,435C 815.446,442.927 815.446,450.927 807.5,459C 803.405,461.22 799.072,461.887 794.5,461C 780.28,450.289 764.613,447.289 747.5,452C 724.684,465.171 717.684,484.338 726.5,509.5C 733.684,525.268 746.017,533.268 763.5,533.5C 773.203,533.557 782.037,530.89 790,525.5C 790.5,519.175 790.666,512.842 790.5,506.5C 781.724,506.941 773.058,506.441 764.5,505C 758.882,500.914 757.049,495.414 759,488.5C 760.5,485.667 762.667,483.5 765.5,482C 780.167,481.333 794.833,481.333 809.5,482C 814,483.833 817.167,487 819,491.5C 819.667,505.833 819.667,520.167 819,534.5C 816.913,540.519 813.08,545.019 807.5,548C 784.566,560.937 760.566,563.604 735.5,556C 711.738,546.331 697.572,528.831 693,503.5C 689.299,461.069 707.799,434.069 748.5,422.5 Z"/></g>
<g><path style="opacity:1" fill="#5c3d7f" d="M 553.5,423.5 C 560.871,422.048 567.038,424.048 572,429.5C 583.667,459.167 595.333,488.833 607,518.5C 619,488.5 631,458.5 643,428.5C 649.167,422.851 656,422.018 663.5,426C 669.615,430.959 671.115,437.126 668,444.5C 652.867,481.429 637.2,518.095 621,554.5C 618.92,556.123 616.754,557.623 614.5,559C 602.951,562.466 594.451,558.966 589,548.5C 574.057,512.947 559.39,477.281 545,441.5C 543.3,433.237 546.133,427.237 553.5,423.5 Z"/></g>
<g><path style="opacity:1" fill="#9676c1" d="M 607.5,627.5 C 613.167,627.5 618.833,627.5 624.5,627.5C 624.5,709.833 624.5,792.167 624.5,874.5C 618.833,874.5 613.167,874.5 607.5,874.5C 607.5,792.167 607.5,709.833 607.5,627.5 Z"/></g>
<g><path style="opacity:1" fill="#9776c1" d="M 338.5,645.5 C 409.501,645.333 480.501,645.5 551.5,646C 564.767,652.865 567.1,662.532 558.5,675C 556.725,676.439 554.725,677.439 552.5,678C 480.833,678.667 409.167,678.667 337.5,678C 325.591,671.181 323.424,662.014 331,650.5C 333.479,648.686 335.979,647.019 338.5,645.5 Z"/></g>
<g><path style="opacity:1" fill="#9776c1" d="M 679.5,645.5 C 750.501,645.333 821.501,645.5 892.5,646C 904.667,650.842 908.167,659.342 903,671.5C 900.635,674.869 897.468,677.036 893.5,678C 821.833,678.667 750.167,678.667 678.5,678C 667.972,671.224 665.805,662.391 672,651.5C 674.478,649.361 676.978,647.361 679.5,645.5 Z"/></g>
<g><path style="opacity:1" fill="#9776c1" d="M 338.5,720.5 C 409.501,720.333 480.501,720.5 551.5,721C 564.767,727.865 567.1,737.532 558.5,750C 556.725,751.439 554.725,752.439 552.5,753C 480.5,753.667 408.5,753.667 336.5,753C 325.536,745.662 323.703,736.495 331,725.5C 333.479,723.686 335.979,722.019 338.5,720.5 Z"/></g>
<g><path style="opacity:1" fill="#9776c1" d="M 679.5,720.5 C 750.501,720.333 821.501,720.5 892.5,721C 904.667,725.842 908.167,734.342 903,746.5C 900.635,749.869 897.468,752.036 893.5,753C 821.833,753.667 750.167,753.667 678.5,753C 667.972,746.27 665.805,737.437 672,726.5C 674.478,724.361 676.978,722.361 679.5,720.5 Z"/></g>
<g><path style="opacity:1" fill="#9776c1" d="M 338.5,795.5 C 409.501,795.333 480.501,795.5 551.5,796C 564.767,802.865 567.1,812.532 558.5,825C 556.725,826.439 554.725,827.439 552.5,828C 480.833,828.667 409.167,828.667 337.5,828C 325.591,821.181 323.424,812.014 331,800.5C 333.479,798.686 335.979,797.019 338.5,795.5 Z"/></g>
<g><path style="opacity:1" fill="#9776c1" d="M 680.5,795.5 C 751.501,795.333 822.501,795.5 893.5,796C 904.933,801.372 908.099,809.872 903,821.5C 900.736,824.433 897.902,826.6 894.5,828C 822.5,828.667 750.5,828.667 678.5,828C 667.972,821.27 665.805,812.437 672,801.5C 674.671,799.098 677.505,797.098 680.5,795.5 Z"/></g>
<g><path style="opacity:1" fill="#9776c1" d="M 282.5,908.5 C 376.167,908.333 469.834,908.5 563.5,909C 585.324,911.487 602.824,921.32 616,938.5C 629.176,921.32 646.676,911.487 668.5,909C 762.166,908.5 855.833,908.333 949.5,908.5C 949.5,927.833 949.5,947.167 949.5,966.5C 727.167,966.5 504.833,966.5 282.5,966.5C 282.5,947.167 282.5,927.833 282.5,908.5 Z"/></g>
</svg>
